<svg xmlns="http://www.w3.org/2000/svg" viewBox="0 0 1600 1400" width="1600" height="1400"><polygon points="1112,1296 808,1288 328,1280 328,1280 320,1272 128,1272 120,1280 104,1288 72,1288 64,1280 56,1240 56,1184 64,1176 96,1168 136,1160 144,1152 152,1144 160,1136 168,1128 176,1112 184,1072 184,1072 192,1064 192,1064 184,1056 176,1032 168,1016 160,1000 152,992 144,984 136,976 120,968 96,960 80,952 72,944 64,904 56,712 48,488 40,368 40,352 40,352 48,344 48,344 40,336 32,200 32,72 40,64 224,56 296,48 472,40 720,32 760,32 760,32 768,40 776,40 784,32 1040,32 1048,40 1056,48 1056,56 1056,56 1048,64 1048,88 1056,96 1056,96 1064,104 1064,104 1072,96 1136,96 1144,104 1152,112 1152,192 1144,264 1136,272 1128,280 1112,280 1104,288 1104,304 1096,312 1088,320 864,320 864,320 856,312 808,312 800,320 784,328 776,344 776,344 768,352 768,432 776,440 776,544 768,552 760,568 752,576 744,584 736,584 728,592 728,600 720,680 712,704 704,720 696,728 688,736 680,744 672,752 648,760 632,768 624,784 616,888 608,952 600,1040 600,1040 592,1048 592,1144 600,1152 656,1152 856,1160 992,1168 1128,1176 1128,1176 1136,1184 1184,1184 1192,1176 1192,1168 1200,1160 1208,1152 1296,1152 1432,1160 1496,1168 1504,1176 1504,1288 1496,1296 1488,1304 1480,1312 1456,1312 1312,1304 " style="fill:#fff;"></polygon></svg>