<?xml version="1.0" encoding="utf-8"?>
<!-- Generator: Adobe Illustrator 16.0.0, SVG Export Plug-In . SVG Version: 6.00 Build 0)  -->
<!DOCTYPE svg PUBLIC "-//W3C//DTD SVG 1.1//EN" "http://www.w3.org/Graphics/SVG/1.1/DTD/svg11.dtd">
<svg version="1.1" id="Ebene_1" xmlns="http://www.w3.org/2000/svg" xmlns:xlink="http://www.w3.org/1999/xlink" x="0px" y="0px"
	 width="24px" height="24px" viewBox="0 0 24 24" enable-background="new 0 0 24 24" xml:space="preserve">
<g>
	<path d="M8,9.139C8.143,8.71,8.56,8.428,9.005,8.456c0.451,0.025,0.829,0.35,0.922,0.792l1.098,5.188L13.07,5.06
		c0.1-0.459,0.506-0.787,0.977-0.787c0.002,0,0.004,0,0.005,0c0.472,0.002,0.878,0.334,0.974,0.797l1.591,7.657h4.965
		c0.046,0,0.086,0.02,0.131,0.025C21.73,12.504,21.75,12.253,21.75,12c0-5.384-4.365-9.749-9.75-9.749S2.25,6.616,2.25,12
		c0,0.245,0.019,0.486,0.037,0.727h4.52L8,9.139z"/>
	<path d="M14.824,13.93l-0.801-3.854l-2.035,9.334c-0.1,0.459-0.507,0.787-0.977,0.787c-0.001,0-0.002,0-0.003,0
		c-0.471-0.002-0.878-0.332-0.976-0.793l-1.299-6.137l-0.257,0.773c-0.136,0.41-0.518,0.686-0.949,0.686H2.644
		C3.824,18.783,7.563,21.75,12,21.75s8.176-2.967,9.355-7.023h-5.553C15.328,14.727,14.92,14.393,14.824,13.93z"/>
</g>
</svg>
